<?xml version="1.0" encoding="iso-8859-1"?>
<!-- Generator: Adobe Illustrator 19.0.0, SVG Export Plug-In . SVG Version: 6.00 Build 0)  -->
<svg xmlns="http://www.w3.org/2000/svg" xmlns:xlink="http://www.w3.org/1999/xlink" version="1.1" id="Layer_1" x="0px" y="0px" viewBox="0 0 502 502" style="enable-background:new 0 0 502 502;" xml:space="preserve" width="512" height="512">
<g>
	<g>
		<circle style="fill:#CCCCCC;" cx="251" cy="251" r="241"/>
		<path d="M251,502c-67.044,0-130.076-26.108-177.484-73.516S0,318.044,0,251S26.108,120.924,73.516,73.516S183.956,0,251,0    s130.076,26.108,177.484,73.516S502,183.956,502,251s-26.108,130.076-73.516,177.484S318.044,502,251,502z M251,20    C123.626,20,20,123.626,20,251s103.626,231,231,231s231-103.626,231-231S378.374,20,251,20z"/>
	</g>
	<g>
		<path d="M223.988,56.754c-4.946,0-9.244-3.667-9.903-8.703c-0.717-5.476,3.141-10.497,8.618-11.213    C232.019,35.618,241.54,35,251,35c5.523,0,10,4.477,10,10s-4.477,10-10,10c-8.595,0-17.242,0.562-25.701,1.669    C224.859,56.727,224.421,56.754,223.988,56.754z"/>
	</g>
	<g>
		<path d="M45,261c-5.523,0-10-4.477-10-10c0-44.91,13.653-87.969,39.484-124.521c25.256-35.739,60.188-62.681,101.02-77.915    c5.174-1.93,10.935,0.699,12.865,5.874c1.931,5.175-0.699,10.934-5.874,12.865C106.236,95.752,55,169.575,55,251    C55,256.523,50.523,261,45,261z"/>
	</g>
</g>















</svg>
